<svg aria-hidden="true" style="width:0;height:0;position:absolute;overflow:hidden" xmlns="http://www.w3.org/2000/svg"><defs><symbol id="icon-burger" viewBox="0 0 56 32"><path d="M1.882.941h52.706a1.882 1.882 0 1 1 0 3.764H1.882a1.882 1.882 0 1 1 0-3.764zM1.882 14.118h52.706a1.882 1.882 0 1 1 0 3.764H1.882a1.882 1.882 0 1 1 0-3.764zM1.882 27.294h52.706a1.882 1.882 0 1 1 0 3.764H1.882a1.882 1.882 0 1 1 0-3.764z"/></symbol><symbol id="icon-close-burger" viewBox="0 0 32 32"><path d="M18.228 16 31.33 2.9A1.58 1.58 0 0 0 29.097.673l.001-.001-13.102 13.1L2.901.656A1.588 1.588 0 1 0 .654 2.897l.001.001L13.771 16 .655 29.1a1.582 1.582 0 1 0 2.226 2.23l.002-.003 13.116-13.1 13.1 13.102a1.58 1.58 0 0 0 2.226-2.231l.002.002-13.1-13.1z"/></symbol><symbol id="icon-Heart" viewBox="0 0 35 32"><path fill="#fd5103" style="fill:var(--color1,#fd5103)" d="m17.684 32-2.564-2.302C6.013 21.554 0 16.183 0 9.591 0 4.22 4.28 0 9.726 0c3.077 0 6.03 1.413 7.958 3.645C19.612 1.413 22.565 0 25.642 0c5.447 0 9.726 4.22 9.726 9.591 0 6.592-6.013 11.963-15.12 20.124l-2.564 2.284z"/><path fill="#fcfcfc" style="fill:var(--color2,#fcfcfc)" d="m17.684 28.632-2.076-1.817c-7.373-6.429-12.24-10.67-12.24-15.874 0-4.24 3.464-7.572 7.874-7.572 2.491 0 4.882 1.115 6.442 2.877 1.56-1.762 3.951-2.877 6.442-2.877 4.409 0 7.874 3.332 7.874 7.572 0 5.204-4.867 9.444-12.24 15.888l-2.076 1.803z"/></symbol><symbol id="icon-prop-false" viewBox="0 0 64 32"><path fill="#fd5103" style="fill:var(--color2,#fd5103)" d="M16 .8h32C56.395.8 63.2 7.605 63.2 16S56.395 31.2 48 31.2H16C7.605 31.2.8 24.395.8 16S7.605.8 16 .8z"/><path fill="#fff" style="fill:var(--color3,#fff)" d="M60.8 16c0 7.069-5.731 12.8-12.8 12.8S35.2 23.069 35.2 16c0-7.069 5.731-12.8 12.8-12.8S60.8 8.931 60.8 16z"/><path fill="none" stroke="#fff" style="stroke:var(--color3,#fff)" stroke-width="1.6" d="M16 .8h32C56.395.8 63.2 7.605 63.2 16S56.395 31.2 48 31.2H16C7.605 31.2.8 24.395.8 16S7.605.8 16 .8z"/></symbol><symbol id="icon-prop-true" viewBox="0 0 64 32"><path fill="#fff" style="fill:var(--color3,#fff)" d="M16 .483h31.998C56.568.483 63.515 7.43 63.515 16v-.002c0 8.57-6.947 15.517-15.517 15.517H16C7.43 31.515.483 24.568.483 15.998V16C.483 7.43 7.43.483 16 .483z"/><path fill="#fd5103" style="fill:var(--color2,#fd5103)" d="M27.2 16c0 7.069-5.731 12.8-12.8 12.8S1.6 23.069 1.6 16c0-7.069 5.731-12.8 12.8-12.8S27.2 8.931 27.2 16z"/><path fill="none" stroke="#fd5103" style="stroke:var(--color2,#fd5103)" stroke-width=".968" d="M16 .483h31.998C56.568.483 63.515 7.43 63.515 16v-.002c0 8.57-6.947 15.517-15.517 15.517H16C7.43 31.515.483 24.568.483 15.998V16C.483 7.43 7.43.483 16 .483z"/></symbol><symbol id="icon-search" viewBox="0 0 30 32"><path style="fill:var(--color2,#fd5103)" d="M12.8 26.4a12.67 12.67 0 0 0 7.862-2.721l-.027.021 7.034 7.034 2.262-2.262-7.034-7.034a12.638 12.638 0 0 0 2.702-7.837c0-7.058-5.742-12.8-12.8-12.8s-12.8 5.742-12.8 12.8 5.742 12.8 12.8 12.8zm0-22.4c5.294 0 9.6 4.306 9.6 9.6s-4.306 9.6-9.6 9.6-9.6-4.306-9.6-9.6S7.506 4 12.8 4z"/></symbol><symbol id="icon-select" viewBox="0 0 52 32"><path d="m27.761 28.887 23.171-24.32c.372-.391.601-.921.601-1.504s-.229-1.113-.602-1.505l.001.001-.029-.029c-.366-.385-.883-.624-1.455-.624s-1.088.239-1.454.623l-.001.001-21.818 22.906L4.366 1.533C4 1.148 3.483.909 2.911.909s-1.088.239-1.454.623l-.001.001-.032.026c-.373.391-.603.921-.603 1.505s.23 1.115.603 1.506l-.001-.001 23.174 24.32a2.178 2.178 0 0 0 3.159.001l.001-.001z"/></symbol></defs></svg>