<svg aria-hidden="true" style="position: absolute; width: 0; height: 0; overflow: hidden;" version="1.1" xmlns="http://www.w3.org/2000/svg" xmlns:xlink="http://www.w3.org/1999/xlink">
<defs>
<symbol id="icon-burger" viewBox="0 0 56 32">
<path d="M1.882 0.941h52.706c1.040 0 1.882 0.843 1.882 1.882s-0.843 1.882-1.882 1.882h-52.706c-1.040 0-1.882-0.843-1.882-1.882s0.843-1.882 1.882-1.882z"></path>
<path d="M1.882 14.118h52.706c1.040 0 1.882 0.843 1.882 1.882s-0.843 1.882-1.882 1.882h-52.706c-1.040 0-1.882-0.843-1.882-1.882s0.843-1.882 1.882-1.882z"></path>
<path d="M1.882 27.294h52.706c1.040 0 1.882 0.843 1.882 1.882s-0.843 1.882-1.882 1.882h-52.706c-1.040 0-1.882-0.843-1.882-1.882s0.843-1.882 1.882-1.882z"></path>
</symbol>
<symbol id="icon-close-burger" viewBox="0 0 32 32">
<path d="M18.228 16l13.102-13.1c0.25-0.278 0.403-0.648 0.403-1.054 0-0.872-0.707-1.579-1.579-1.579-0.406 0-0.777 0.154-1.057 0.406l0.001-0.001-13.102 13.1-13.095-13.116c-0.291-0.313-0.705-0.509-1.165-0.509-0.877 0-1.588 0.711-1.588 1.588 0 0.459 0.195 0.872 0.506 1.162l0.001 0.001 13.116 13.102-13.116 13.1c-0.352 0.292-0.574 0.73-0.574 1.22 0 0.874 0.708 1.582 1.582 1.582 0.49 0 0.927-0.222 1.218-0.572l0.002-0.003 13.116-13.1 13.1 13.102c0.274 0.236 0.634 0.38 1.028 0.38 0.873 0 1.58-0.708 1.58-1.58 0-0.394-0.144-0.754-0.382-1.031l0.002 0.002-13.1-13.1z"></path>
</symbol>
<symbol id="icon-heart" viewBox="0 0 36 32">
<path fill="#fcfcfc" style="fill: var(--color1, #fcfcfc)" d="M18.133 30.315l-2.379-2.059c-8.448-7.285-14.027-12.092-14.027-17.99 0-4.804 3.968-8.58 9.024-8.58 2.852 0 5.594 1.263 7.381 3.26 1.788-1.997 4.529-3.26 7.381-3.26 5.056 0 9.024 3.776 9.024 8.58 0 5.899-5.577 10.705-14.027 18.005l-2.379 2.046z"></path>
</symbol>
<symbol id="icon-prop-false" viewBox="0 0 64 32">
<path fill="#fd5103" style="fill: var(--color2, #fd5103)" d="M16 0.8h32c8.395 0 15.2 6.805 15.2 15.2s-6.805 15.2-15.2 15.2h-32c-8.395 0-15.2-6.805-15.2-15.2s6.805-15.2 15.2-15.2z"></path>
<path fill="#fff" style="fill: var(--color3, #fff)" d="M60.8 16c0 7.069-5.731 12.8-12.8 12.8s-12.8-5.731-12.8-12.8c0-7.069 5.731-12.8 12.8-12.8s12.8 5.731 12.8 12.8z"></path>
<path fill="none" stroke="#fff" style="stroke: var(--color3, #fff)" stroke-linejoin="miter" stroke-linecap="butt" stroke-miterlimit="4" stroke-width="1.6" d="M16 0.8h32c8.395 0 15.2 6.805 15.2 15.2s-6.805 15.2-15.2 15.2h-32c-8.395 0-15.2-6.805-15.2-15.2s6.805-15.2 15.2-15.2z"></path>
</symbol>
<symbol id="icon-prop-true" viewBox="0 0 64 32">
<path fill="#fff" style="fill: var(--color3, #fff)" d="M16 0.483h31.998c8.57 0 15.517 6.947 15.517 15.517v-0.002c0 8.57-6.947 15.517-15.517 15.517h-31.998c-8.57 0-15.517-6.947-15.517-15.517v0.002c0-8.57 6.947-15.517 15.517-15.517z"></path>
<path fill="#fd5103" style="fill: var(--color2, #fd5103)" d="M27.2 16c0 7.069-5.731 12.8-12.8 12.8s-12.8-5.731-12.8-12.8c0-7.069 5.731-12.8 12.8-12.8s12.8 5.731 12.8 12.8z"></path>
<path fill="none" stroke="#fd5103" style="stroke: var(--color2, #fd5103)" stroke-linejoin="miter" stroke-linecap="butt" stroke-miterlimit="4" stroke-width="0.968" d="M16 0.483h31.998c8.57 0 15.517 6.947 15.517 15.517v-0.002c0 8.57-6.947 15.517-15.517 15.517h-31.998c-8.57 0-15.517-6.947-15.517-15.517v0.002c0-8.57 6.947-15.517 15.517-15.517z"></path>
</symbol>
<symbol id="icon-search" viewBox="0 0 30 32">
<path fill="#fd5103" style="fill: var(--color2, #fd5103)" d="M12.8 26.4c2.968-0.001 5.698-1.017 7.862-2.721l-0.027 0.021 7.034 7.034 2.262-2.262-7.034-7.034c1.684-2.137 2.702-4.868 2.702-7.837v-0c0-7.058-5.742-12.8-12.8-12.8s-12.8 5.742-12.8 12.8 5.742 12.8 12.8 12.8zM12.8 4c5.294 0 9.6 4.306 9.6 9.6s-4.306 9.6-9.6 9.6-9.6-4.306-9.6-9.6 4.306-9.6 9.6-9.6z"></path>
</symbol>
<symbol id="icon-select" viewBox="0 0 52 32">
<path d="M27.761 28.887l23.171-24.32c0.372-0.391 0.601-0.921 0.601-1.504s-0.229-1.113-0.602-1.505l0.001 0.001-0.029-0.029c-0.366-0.385-0.883-0.624-1.455-0.624s-1.088 0.239-1.454 0.623l-0.001 0.001-21.818 22.906-21.809-22.903c-0.366-0.385-0.883-0.624-1.455-0.624s-1.088 0.239-1.454 0.623l-0.001 0.001-0.032 0.026c-0.373 0.391-0.603 0.921-0.603 1.505s0.23 1.115 0.603 1.506l-0.001-0.001 23.174 24.32c0.398 0.417 0.959 0.677 1.58 0.677s1.181-0.259 1.579-0.676l0.001-0.001z"></path>
</symbol>
</defs>
</svg>
